<mxfile host="app.diagrams.net" modified="2024-01-31T11:56:19.578Z" agent="Mozilla/5.0 (Windows NT 10.0; Win64; x64) AppleWebKit/537.36 (KHTML, like Gecko) Chrome/120.0.0.0 Safari/537.36 Edg/120.0.0.0" version="23.0.2" etag="gCYuAjf-6DofNhwcoNb2" type="github">
  <diagram name="PÃ¡gina-1" id="0s_lzN2qsKKjI1K0mPXi">
    <mxGraphModel>
      <root>
        <mxCell id="0" />
        <mxCell id="1" parent="0" />
      </root>
    </mxGraphModel>
  </diagram>
</mxfile>
